<svg xmlns="http://www.w3.org/2000/svg" xmlns:xlink="http://www.w3.org/1999/xlink" xml:space="preserve" overflow="hidden" viewBox="286.09 96.46 685.06 686.45"><defs><filter id="fx0" x="-10%" y="-10%" width="120%" height="120%" filterUnits="userSpaceOnUse" primitiveUnits="userSpaceOnUse"><feComponentTransfer color-interpolation-filters="sRGB"><feFuncR type="discrete" tableValues="0.431373 0.431373"/><feFuncG type="discrete" tableValues="0.454902 0.454902"/><feFuncB type="discrete" tableValues="0.478431 0.478431"/><feFuncA type="linear" slope="0.431373" intercept="0.000000"/></feComponentTransfer><feGaussianBlur stdDeviation="5.541384 5.541384"/></filter><filter id="fx1" x="-10%" y="-10%" width="120%" height="120%" filterUnits="userSpaceOnUse" primitiveUnits="userSpaceOnUse"><feComponentTransfer color-interpolation-filters="sRGB"><feFuncR type="discrete" tableValues="0.431373 0.431373"/><feFuncG type="discrete" tableValues="0.454902 0.454902"/><feFuncB type="discrete" tableValues="0.478431 0.478431"/><feFuncA type="linear" slope="0.431373" intercept="0.000000"/></feComponentTransfer><feGaussianBlur stdDeviation="5.541384 5.541384"/></filter><filter id="fx2" x="-10%" y="-10%" width="120%" height="120%" filterUnits="userSpaceOnUse" primitiveUnits="userSpaceOnUse"><feComponentTransfer color-interpolation-filters="sRGB"><feFuncR type="discrete" tableValues="0.431373 0.431373"/><feFuncG type="discrete" tableValues="0.454902 0.454902"/><feFuncB type="discrete" tableValues="0.478431 0.478431"/><feFuncA type="linear" slope="0.431373" intercept="0.000000"/></feComponentTransfer><feGaussianBlur stdDeviation="5.541384 5.541384"/></filter><filter id="fx3" x="-10%" y="-10%" width="120%" height="120%" filterUnits="userSpaceOnUse" primitiveUnits="userSpaceOnUse"><feComponentTransfer color-interpolation-filters="sRGB"><feFuncR type="discrete" tableValues="0.431373 0.431373"/><feFuncG type="discrete" tableValues="0.454902 0.454902"/><feFuncB type="discrete" tableValues="0.478431 0.478431"/><feFuncA type="linear" slope="0.431373" intercept="0.000000"/></feComponentTransfer><feGaussianBlur stdDeviation="5.541384 5.541384"/></filter></defs><g transform="translate(132 -394)"><g><path d="M10.3125-5.72917e-06 10.3128 629.188-10.3122 629.188-10.3125 5.72917e-06ZM45.0018 572.509 0.000358022 649.654-45.0012 572.509C-47.8709 567.589-46.2092 561.275-41.2896 558.405-36.37 555.535-30.0555 557.197-27.1857 562.116L8.90807 623.991-8.90737 623.991 27.1863 562.116C30.0561 557.197 36.3706 555.535 41.2902 558.405 46.2098 561.275 47.8716 567.589 45.0018 572.509Z" fill="#000000" fill-rule="nonzero" fill-opacity="1" transform="matrix(1 0 0 -1 200.5 1140.11)"/><path d="M189.5 1120.19 818.688 1120.19 818.688 1140.81 189.5 1140.81ZM762.009 1085.5 839.154 1130.5 762.009 1175.5C757.089 1178.37 750.774 1176.71 747.905 1171.79 745.035 1166.87 746.697 1160.56 751.616 1157.69L813.491 1121.59 813.491 1139.41 751.616 1103.31C746.697 1100.44 745.035 1094.13 747.905 1089.21 750.774 1084.29 757.089 1082.63 762.009 1085.5Z" fill="#000000" fill-rule="nonzero" fill-opacity="1"/><g filter="url(#fx0)" transform="translate(-124 394)"><g><g><path d="M226.6-105.6C240.9-107.25 254.65-107.8 265.1-106.7 272.25-105.6 273.35-109.45 270.6-115.5 263.45-132 248.05-144.1 220.55-143.55 187-143 145.2-129.25 102.3-128.7 95.7-128.7 94.05-125.4 96.8-119.9 105.05-102.3 122.1-90.75 149.6-93.5 162.8-94.6 180.4-97.9 198-101.2 164.45-34.65 100.1 6.6 69.85-21.45 47.85-41.8 46.2-125.4 97.35-203.5 149.6-283.25 239.25-330.55 256.85-312.4 268.95-300.3 248.6-269.5 241.45-242 234.3-214.5 243.1-198.55 255.75-189.75 261.8-184.25 265.65-188.1 267.3-192.5 273.35-208.45 282.15-230.45 288.75-245.3 296.45-262.9 297.55-277.75 292.6-293.15 288.2-307.45 279.4-321.2 264-332.2 245.3-345.95 220.55-345.4 189.75-335.5 127.6-315.15 16.5-210.65 17.6-92.4 18.15-47.3 34.65-22.55 54.45-7.7 84.7 15.4 119.35 11 146.3 3.3 173.8-4.4 240.9-53.9 226.6-105.6Z" fill="#ED7D31" fill-rule="nonzero" fill-opacity="1" transform="matrix(1 0 0 1 347.896 619)"/></g></g></g><text fill="#ED7D31" fill-opacity="1" font-family="SignPainter-HouseScript,SignPainter-HouseScript_MSFontService,sans-serif" font-style="normal" font-variant="normal" font-weight="400" font-stretch="normal" font-size="550" text-anchor="start" direction="ltr" writing-mode="lr-tb" unicode-bidi="normal" text-decoration="none" transform="matrix(1 0 0 1 223.896 1002)">G</text><g filter="url(#fx1)" transform="translate(288 645)"><g><g><path d="M41.409-62.595C56.496-45.903 73.188-25.038 94.374 3.852 96.3 6.741 97.905 5.778 99.51 3.21 103.683-3.21 102.399-14.124 97.905-22.791 91.164-36.273 79.608-51.681 67.41-66.768 103.041-75.114 137.709-95.337 155.043-118.449 167.241-134.82 171.735-154.401 164.994-173.661 157.29-195.489 143.166-200.304 126.795-199.662 105.288-198.699 81.213-185.538 54.249-182.328 50.076-181.686 49.113-180.081 50.718-176.871 54.57-169.809 60.348-164.994 71.262-164.031 43.014-119.733 12.84-58.743 4.815-29.532 0-12.198 3.21-2.568 7.704 2.247 9.951 4.494 11.556 4.173 12.84 0.963 23.433-25.359 32.742-45.582 41.409-62.595ZM90.843-165.957C112.029-171.735 144.129-188.427 151.191-170.451 160.5-147.66 124.227-100.794 53.286-85.065 61.953-100.794 69.978-114.276 78.645-129.684 87.312-145.734 90.843-156.969 90.843-165.957Z" fill="#ED7D31" fill-rule="nonzero" fill-opacity="1" transform="matrix(1 0 0 1 210.896 368)"/></g></g></g><text fill="#ED7D31" fill-opacity="1" font-family="SignPainter-HouseScript,SignPainter-HouseScript_MSFontService,sans-serif" font-style="normal" font-variant="normal" font-weight="400" font-stretch="normal" font-size="321" text-anchor="start" direction="ltr" writing-mode="lr-tb" unicode-bidi="normal" text-decoration="none" transform="matrix(1 0 0 1 498.896 1002)">R</text><g filter="url(#fx2)" transform="translate(490 745)"><g><g><path d="M71.677-35.953C70.99-29.083 70.761-23.129 70.761-18.549 70.99-5.496 74.654 0.229 79.234 2.29 81.295 3.206 82.669 2.519 82.669 0.229 83.127-11.908 84.501-24.503 86.104-36.411 89.997-36.182 93.203-35.724 95.951-35.037 98.012-34.35 98.928-35.037 98.47-37.098 97.554-41.907 95.035-46.487 88.165-48.777 92.516-73.967 98.928-97.325 104.882-115.416 106.943-121.599 107.172-126.637 104.882-132.133 102.592-137.858 101.905-138.316 99.615-141.522 97.325-144.728 95.035-144.728 91.371-141.751 67.097-121.828 35.266-76.486 17.404-45.342 13.74-45.571 10.305-46.029 7.099-46.487 3.664-46.945 3.206-46.029 4.351-43.052 5.038-41.449 6.87-38.014 11.908-35.266 9.16-30.228 7.099-25.648 5.725-22.213 0.916-9.389 1.832-2.519 4.58 1.145 5.725 2.748 7.786 2.748 8.702 0.687 13.282-9.389 19.236-20.61 26.106-32.289 36.869-32.06 55.418-34.808 71.677-35.953ZM34.808-46.029C52.212-73.28 73.051-100.989 90.455-120.454 83.356-102.592 76.944-73.738 73.509-49.922 62.746-49.693 48.777-47.174 34.808-46.029Z" fill="#ED7D31" fill-rule="nonzero" fill-opacity="1" transform="matrix(1 0 0 1 155.562 268)"/></g></g></g><text fill="#ED7D31" fill-opacity="1" font-family="SignPainter-HouseScript,SignPainter-HouseScript_MSFontService,sans-serif" font-style="normal" font-variant="normal" font-weight="400" font-stretch="normal" font-size="229" text-anchor="start" direction="ltr" writing-mode="lr-tb" unicode-bidi="normal" text-decoration="none" transform="matrix(1 0 0 1 645.562 1002)">A</text><g filter="url(#fx3)" transform="translate(632 820)"><g><g><path d="M34.08-81.76C22.08-63.84 9.92-40.48 3.52-22.56-0.16-12.32 1.44-9.76 3.84-6.24 5.92-3.2 8.8-0.48 12 1.12 15.52 2.88 19.36 3.04 25.44 1.92 34.4 0.32 46.4-5.28 53.44-12.96 60.32-20.48 60.48-29.92 57.12-34.88 55.04-37.92 52.48-40.16 49.44-41.6 61.28-46.72 69.76-54.72 74.4-60.64 79.84-67.68 82.88-76.64 80-87.36 77.12-98.24 69.28-100.8 61.12-100.32 50.4-99.68 36-91.84 24.8-90.88 22.88-90.72 22.4-89.92 23.2-88.16 24.32-85.6 27.68-82.08 34.08-81.76ZM26.72-46.08C31.36-54.24 36-61.76 39.2-67.68 43.2-75.04 44.32-79.84 44-83.36 55.04-86.88 70.88-94.24 74.08-85.92 78.08-75.04 58.4-53.44 26.72-46.08ZM39.04-38.08C53.6-37.28 53.6-30.08 47.68-22.72 40.8-14.24 27.04-7.68 16.8-6.4 11.68-5.76 9.92-7.68 11.68-13.28 14.08-21.28 18.08-29.76 22.4-38.08 24.64-36.96 27.84-36.48 32.32-36.96 34.56-37.28 36.8-37.6 39.04-38.08Z" fill="#ED7D31" fill-rule="nonzero" fill-opacity="1" transform="matrix(1 0 0 1 114.969 193)"/></g></g></g><text fill="#ED7D31" fill-opacity="1" font-family="SignPainter-HouseScript,SignPainter-HouseScript_MSFontService,sans-serif" font-style="normal" font-variant="normal" font-weight="400" font-stretch="normal" font-size="160" text-anchor="start" direction="ltr" writing-mode="lr-tb" unicode-bidi="normal" text-decoration="none" transform="matrix(1 0 0 1 746.969 1002)">B</text></g></g></svg>