<svg width="830" height="834" xmlns="http://www.w3.org/2000/svg" xmlns:xlink="http://www.w3.org/1999/xlink" xml:space="preserve" overflow="hidden"><g transform="translate(-1466 -490)"><g><path d="M10.3125-5.72917e-06 10.3128 629.188-10.3122 629.188-10.3125 5.72917e-06ZM45.0018 572.509 0.000358022 649.654-45.0012 572.509C-47.8709 567.589-46.2092 561.275-41.2896 558.405-36.37 555.535-30.0555 557.197-27.1857 562.116L8.90807 623.991-8.90737 623.991 27.1863 562.116C30.0561 557.197 36.3706 555.535 41.2902 558.405 46.2098 561.275 47.8716 567.589 45.0018 572.509Z" fill="#000000" fill-rule="nonzero" fill-opacity="1" transform="matrix(1 0 0 -1 1562.5 1237.11)"/><path d="M1550.5 1218.19 2179.69 1218.19 2179.69 1238.81 1550.5 1238.81ZM2123.01 1183.5 2200.15 1228.5 2123.01 1273.5C2118.09 1276.37 2111.77 1274.71 2108.91 1269.79 2106.04 1264.87 2107.7 1258.56 2112.62 1255.69L2174.49 1219.59 2174.49 1237.41 2112.62 1201.31C2107.7 1198.44 2106.04 1192.13 2108.91 1187.21 2111.77 1182.29 2118.09 1180.63 2123.01 1183.5Z" fill="#000000" fill-rule="nonzero" fill-opacity="1"/><path d="M1636.5 1088.1C1701.92 884.705 1767.34 681.313 1808.45 691.896 1849.55 702.478 1828.43 1112.65 1883.11 1151.59 1937.78 1190.53 2037.14 1058.04 2136.5 925.553" stroke="#7030A0" stroke-width="20.625" stroke-linecap="butt" stroke-linejoin="miter" stroke-miterlimit="8" stroke-opacity="1" fill="none" fill-rule="evenodd"/></g></g></svg>