<svg width="829" height="1027" xmlns="http://www.w3.org/2000/svg" xmlns:xlink="http://www.w3.org/1999/xlink" xml:space="preserve" overflow="hidden"><g transform="translate(-183 -256)"><g><rect x="193" y="317" width="817" height="748" fill="#FFFFFF" fill-opacity="1"/><path d="M10.3125-5.72917e-06 10.3128 629.188-10.3122 629.188-10.3125 5.72917e-06ZM45.0018 572.509 0.000358022 649.654-45.0012 572.509C-47.8709 567.589-46.2092 561.275-41.2896 558.405-36.37 555.535-30.0555 557.197-27.1857 562.116L8.90807 623.991-8.90737 623.991 27.1863 562.116C30.0561 557.197 36.3706 555.535 41.2902 558.405 46.2098 561.275 47.8716 567.589 45.0018 572.509Z" fill="#000000" fill-rule="nonzero" fill-opacity="1" transform="matrix(1 0 0 -1 278.5 1004.11)"/><path d="M266.5 985.188 895.688 985.188 895.688 1005.81 266.5 1005.81ZM839.009 950.499 916.154 995.5 839.009 1040.5C834.089 1043.37 827.774 1041.71 824.905 1036.79 822.035 1031.87 823.697 1025.56 828.616 1022.69L890.491 986.593 890.491 1004.41 828.616 968.314C823.697 965.445 822.035 959.13 824.905 954.21 827.774 949.291 834.089 947.629 839.009 950.499Z" fill="#000000" fill-rule="nonzero" fill-opacity="1"/><path d="M720.731 520C729.544 559.85 738.358 599.701 695.349 718.899 652.34 838.098 521.905 1160.43 462.68 1235.19 403.455 1309.95 371.728 1238.72 340 1167.48" stroke="#4472C4" stroke-width="27.5" stroke-linecap="butt" stroke-linejoin="miter" stroke-miterlimit="8" stroke-opacity="1" fill="none" fill-rule="evenodd"/><path d="M500.473 562.136C545.865 537.083 701.107 483.621 725.908 528.82 750.71 574.019 694.674 808.277 649.283 833.329 603.891 858.382 477.146 724.77 453.558 679.134 429.969 633.498 455.081 587.188 500.473 562.136Z" stroke="#ED7D31" stroke-width="27.5" stroke-linecap="butt" stroke-linejoin="miter" stroke-miterlimit="8" stroke-opacity="1" fill="none" fill-rule="evenodd"/></g></g></svg>