<svg width="1398" height="1713" xmlns="http://www.w3.org/2000/svg" xmlns:xlink="http://www.w3.org/1999/xlink" xml:space="preserve" overflow="hidden"><defs><filter id="fx0" x="-10%" y="-10%" width="120%" height="120%" filterUnits="userSpaceOnUse" primitiveUnits="userSpaceOnUse"><feComponentTransfer color-interpolation-filters="sRGB"><feFuncR type="discrete" tableValues="0.431373 0.431373"/><feFuncG type="discrete" tableValues="0.454902 0.454902"/><feFuncB type="discrete" tableValues="0.478431 0.478431"/><feFuncA type="linear" slope="0.431373" intercept="0.000000"/></feComponentTransfer><feGaussianBlur stdDeviation="7.119097 7.119097"/></filter></defs><g transform="translate(1627 852)"><g><path d="M10.3125-5.72917e-06 10.3128 629.188-10.3122 629.188-10.3125 5.72917e-06ZM45.0018 572.509 0.000358022 649.654-45.0012 572.509C-47.8709 567.589-46.2092 561.275-41.2896 558.405-36.37 555.535-30.0555 557.197-27.1857 562.116L8.90807 623.991-8.90737 623.991 27.1863 562.116C30.0561 557.197 36.3706 555.535 41.2902 558.405 46.2098 561.275 47.8716 567.589 45.0018 572.509Z" fill="#000000" fill-rule="nonzero" fill-opacity="1" transform="matrix(1 0 0 -1 -1210.5 105.106)"/><path d="M-1222.5 85.1876-593.312 85.1879-593.312 105.813-1222.5 105.813ZM-649.991 50.4989-572.846 95.5004-649.991 140.502C-654.911 143.372-661.225 141.71-664.095 136.79-666.965 131.871-665.303 125.556-660.383 122.686L-598.508 86.5927-598.508 104.408-660.383 68.3144C-665.303 65.4446-666.965 59.1301-664.095 54.2105-661.225 49.2909-654.911 47.6291-649.991 50.4989Z" fill="#000000" fill-rule="nonzero" fill-opacity="1"/><g filter="url(#fx0)" transform="translate(-1626 -849)"><g><g><path d="M326.716-152.256C347.334-154.635 367.159-155.428 382.226-153.842 392.535-152.256 394.121-157.807 390.156-166.53 379.847-190.32 357.643-207.766 317.993-206.973 269.62-206.18 209.352-186.355 147.498-185.562 137.982-185.562 135.603-180.804 139.568-172.874 151.463-147.498 176.046-130.845 215.696-134.81 234.728-136.396 260.104-141.154 285.48-145.912 237.107-49.959 144.326 9.516 100.711-30.927 68.991-60.268 66.612-180.804 140.361-293.41 215.696-408.395 344.955-476.593 370.331-450.424 387.777-432.978 358.436-388.57 348.127-348.92 337.818-309.27 350.506-286.273 368.745-273.585 377.468-265.655 383.019-271.206 385.398-277.55 394.121-300.547 406.809-332.267 416.325-353.678 427.427-379.054 429.013-400.465 421.876-422.669 415.532-443.287 402.844-463.112 380.64-478.972 353.678-498.797 317.993-498.004 273.585-483.73 183.976-454.389 23.79-303.719 25.376-133.224 26.169-68.198 49.959-32.513 78.507-11.102 122.122 22.204 172.081 15.86 210.938 4.758 250.588-6.344 347.334-77.714 326.716-152.256Z" fill="#ED7D31" fill-rule="nonzero" fill-opacity="1" transform="matrix(1 0 0 1 499.422 890)"/></g></g></g><text fill="#ED7D31" fill-opacity="1" font-family="SignPainter-HouseScript,SignPainter-HouseScript_MSFontService,sans-serif" font-style="normal" font-variant="normal" font-weight="400" font-stretch="normal" font-size="793" text-anchor="start" direction="ltr" writing-mode="lr-tb" unicode-bidi="normal" text-decoration="none" transform="matrix(1 0 0 1 -1126.58 26)">G</text></g></g></svg>